<svg width="733" class="svg" height="482" viewBox="0 0 733 482" fill="none" xmlns="http://www.w3.org/2000/svg">
<g id="man-animation 1" clip-path="url(#clip0)">
<g id="Group">
<path id="Vector" d="M583.08 92.214C562.107 69.829 545.872 43.107 520.805 24.839C481.431 -3.915 424.764 -6.719 378.725 11.345C332.685 29.408 296.82 65.819 273.181 107.048C260.746 128.74 250.979 152.402 232.758 170.128C217.355 185.104 197.11 194.659 177.915 205.066C146.967 221.799 117.163 242.018 97.135 269.761C77.109 297.504 68.155 333.941 80.957 365.207C89.59 386.304 106.979 403.09 124.793 418.288C145.757 436.157 168.289 452.889 194.293 463.536C226.848 476.782 262.987 479.63 298.427 480.978C361.255 483.358 424.184 481.579 486.746 475.655C537.976 470.811 590.757 462.542 633.62 435.775C693.663 398.291 724.62 329.612 731.59 262.265C734.426 235.329 733.708 207.337 722.626 182.345C696.122 122.565 624.609 136.547 583.079 92.214H583.08Z" fill="#EFF1F7"/>
<path id="Vector_2" d="M178.317 202.334C178.317 202.334 161.717 199.387 157.067 211.003C152.417 222.619 157.067 262.736 157.067 262.736L219 307L178.317 202.334Z" fill="#3F3D56"/>
<path id="Vector_3" d="M256.202 379.727L231.647 386.735C228.079 387.745 224.337 385.783 223.275 382.349C222.228 378.911 224.262 375.303 227.825 374.28L252.347 367.266C255.912 366.256 259.654 368.213 260.719 371.645C261.777 375.078 259.759 378.69 256.202 379.727V379.727Z" fill="#2BD0D0"/>
<path id="Vector_4" d="M255 406C261.075 406 266 401.075 266 395C266 388.925 261.075 384 255 384C248.925 384 244 388.925 244 395C244 401.075 248.925 406 255 406Z" fill="#25233A"/>
<path id="Vector_5" d="M253.5 403C256.538 403 259 400.538 259 397.5C259 394.462 256.538 392 253.5 392C250.462 392 248 394.462 248 397.5C248 400.538 250.462 403 253.5 403Z" fill="#3F3D56"/>
<path id="Vector_6" d="M210 395C216.075 395 221 390.075 221 384C221 377.925 216.075 373 210 373C203.925 373 199 377.925 199 384C199 390.075 203.925 395 210 395Z" fill="#25233A"/>
<path id="Vector_7" d="M214 384.5C214 385.959 213.42 387.358 212.389 388.389C211.358 389.421 209.959 390 208.5 390C207.041 390 205.642 389.421 204.611 388.389C203.579 387.358 203 385.959 203 384.5C203 383.041 203.579 381.642 204.611 380.611C205.642 379.579 207.041 379 208.5 379C209.959 379 211.358 379.579 212.389 380.611C213.42 381.642 214 383.041 214 384.5V384.5Z" fill="url(#paint0_linear)"/>
<path id="Vector_8" d="M207 410C213.075 410 218 405.075 218 399C218 392.925 213.075 388 207 388C200.925 388 196 392.925 196 399C196 405.075 200.925 410 207 410Z" fill="#25233A"/>
<path id="Vector_9" d="M216 399.5C216 400.959 215.42 402.358 214.389 403.389C213.358 404.421 211.959 405 210.5 405C209.041 405 207.642 404.421 206.611 403.389C205.579 402.358 205 400.959 205 399.5C205 398.041 205.579 396.642 206.611 395.611C207.642 394.579 209.041 394 210.5 394C211.959 394 213.358 394.579 214.389 395.611C215.42 396.642 216 398.041 216 399.5Z" fill="#3F3D56"/>
<path id="Vector_10" d="M257.085 390.874L206.298 380.828C202.724 380.111 200.414 376.698 201.13 373.192C201.862 369.692 205.34 367.428 208.915 368.126L259.702 378.153C263.276 378.87 265.586 382.283 264.87 385.79C264.147 389.297 260.666 391.571 257.085 390.874V390.874Z" fill="#2BD0D0"/>
<path id="Vector_11" d="M226 310H240V369C240 372.866 236.867 376 233.003 376C231.147 375.999 229.367 375.261 228.055 373.949C226.744 372.636 226.007 370.856 226.007 369V310H226Z" fill="#2BD0D0"/>
<path id="Vector_12" d="M231.187 386.708L206.65 393.733C203.082 394.747 199.336 392.784 198.275 389.345C197.228 385.905 199.262 382.295 202.823 381.271L227.36 374.266C230.924 373.256 234.664 375.214 235.728 378.647C236.767 382.082 234.738 385.681 231.187 386.707V386.708Z" fill="#2BD0D0"/>
<path id="Vector_13" d="M236 386.26L232.875 386.811C231.926 386.976 230.962 387.033 230 386.983L231.305 386.755C232.169 386.611 233.012 386.357 233.812 386L236 386.26Z" fill="url(#paint1_linear)"/>
<path id="Vector_14" d="M261 372.738C261.003 374.282 260.489 375.782 259.54 377L239 372.65C239.52 371.907 239.892 371.071 240.098 370.188L252.752 366.265C253.567 366.019 254.423 365.944 255.269 366.043C256.114 366.143 256.93 366.415 257.665 366.844C259.165 367.711 260.274 369.168 260.748 370.892C260.912 371.492 260.997 372.114 261 372.738V372.738Z" fill="url(#paint2_linear)"/>
<path id="Vector_15" opacity="0.31" d="M225.22 371.103C225.074 370.589 225 370.057 225 369.523V311H230.943V374.07C230.884 374.38 230.903 374.697 231 375C230.084 374.682 229.124 374.51 228.155 374.489C227.465 374.449 226.77 374.449 226.079 374.489L226.504 374.389C226.766 374.349 225.564 372.298 225.221 371.103H225.22Z" fill="url(#paint3_linear)"/>
<path id="Vector_16" opacity="0.31" d="M262.289 389.8C261.319 390.323 260.228 390.597 259.119 390.596C258.672 390.595 258.227 390.551 257.789 390.466L235.382 386.06L233.515 385.697C232.874 386.176 232.151 386.534 231.382 386.752L230.272 387.069L207.247 393.735C203.733 394.742 200.045 392.792 199 389.373C200.997 391.178 204.029 391.346 206.223 389.774C209.034 387.878 220.225 385.031 226.564 383.517C229.56 382.819 231.852 380.467 232.412 377.517C232.428 377.344 232.454 377.171 232.492 377C233.548 378.113 235.489 379.362 238.997 380.423C247.637 383.012 261.664 384.727 261.664 384.727C261.664 384.727 264.196 387.147 262.289 389.8V389.8Z" fill="url(#paint4_linear)"/>
<path id="rightLeg" d="M328.893 290C328.893 290 350.827 306.687 348.877 329.259C346.928 351.831 344.064 385.346 344.064 385.346C344.064 385.346 335.218 389.068 329.357 385.346C323.495 381.624 319.946 330.696 317.042 325.833C314.138 320.969 296.667 299.043 278 297.154L328.893 290Z" fill="#25233A"/>
<path id="Vector_17" d="M264 388C263.464 388.786 262.786 389.464 262 390C262.674 389.341 263.341 388.675 264 388V388Z" fill="url(#paint5_linear)"/>
<path id="Vector_18" d="M226.3 370.559C226.579 371.734 227.166 372.815 228 373.689C227.79 373.728 227.575 373.781 227.359 373.84L206.088 380C202.817 379.187 200.662 376.135 201.044 372.854C201.425 369.574 204.225 367.073 207.6 367C208.053 367.001 208.505 367.045 208.95 367.132L226.3 370.559V370.559Z" fill="url(#paint6_linear)"/>
<path id="Vector_19" d="M259 89.407C259 89.407 258.724 68.602 241.925 70.397C225.125 72.19 226.414 65.302 219.238 66.058C212.063 66.815 203.728 73.844 206.121 82.526C208.516 91.208 199.789 93.149 194.057 99.736C188.324 106.323 195.406 111.712 205.063 118.152C214.72 124.592 204.463 122.925 210.188 133.107C215.914 143.288 235.295 130.282 235.295 130.282L259 89.407Z" fill="#503164"/>
<path id="Vector_20" d="M122.664 434.601L134.394 435V341.255C134.394 341.255 134.984 317.014 157.846 314.582C180.707 312.151 388.042 282.116 388.042 282.116C388.042 282.116 396.26 281.246 400.993 297.017C405.726 312.788 410.333 374.804 410.333 374.804L473.973 383.381C473.973 383.381 475.653 273.831 452.671 267.786C429.69 261.741 129.149 292.546 129.149 292.546C129.149 292.546 106.859 408.898 122.664 434.601V434.601Z" fill="#2BD0D0"/>
<path id="Vector_21" opacity="0.197" d="M122.664 434.601L134.394 435V341.255C134.394 341.255 134.984 317.014 157.846 314.582C180.707 312.151 388.042 282.116 388.042 282.116C388.042 282.116 396.26 281.246 400.993 297.017C405.726 312.788 410.333 374.804 410.333 374.804L473.973 383.381C473.973 383.381 475.653 273.831 452.671 267.786C429.69 261.741 129.149 292.546 129.149 292.546C129.149 292.546 106.859 408.898 122.664 434.601V434.601Z" fill="url(#paint7_linear)"/>
<path id="Vector_22" d="M62 303.784C62 303.784 67.744 272.028 108.144 263.705L393.327 231.062C393.327 231.062 421.323 229.902 434.131 237.649C446.939 245.395 465.219 251.817 472.714 286.872C480.209 321.928 482 381.814 482 381.814L474.91 382.914C474.91 382.914 464.562 274.474 453.598 267.608C442.635 260.743 146.196 302.863 146.196 302.863C146.196 302.863 125.635 306.951 123.844 337.395C122.054 367.838 123.844 434 123.844 434L62 409.057V303.784Z" fill="#2BD0D0"/>
<path id="Vector_23" opacity="0.19" d="M355.425 243.844C340.663 241.944 325.781 240.568 310.906 241.124C299.726 241.557 288.62 243.09 277.534 244.617L179.759 258.12C178.099 258.35 176.209 258.723 175.379 260.164C173.787 262.916 177.529 265.628 180.561 266.676C213.071 277.932 247.804 289.332 281.269 281.306C296.569 277.637 310.78 270.018 326.299 267.371C341.817 264.724 357.747 267.161 373.232 264.665C387.789 262.32 401.649 255.656 416.404 255.591C420.929 255.591 425.587 256.168 429.879 254.752C434.172 253.337 437.967 249.013 436.779 244.702C422.926 244.224 407.375 241.695 393.787 244.44C380.338 247.152 368.893 243.844 355.425 243.844V243.844Z" fill="url(#paint8_linear)"/>
<path id="Vector_24" d="M267 259.38L267.57 261.494C267.57 261.494 284.451 271.667 284.345 271.995C284.239 272.323 354.369 255.755 354.369 255.755L356 251L267 259.38Z" fill="#2BD0D0"/>
<path id="Vector_25" d="M267 259.38L267.57 261.494C267.57 261.494 284.451 271.667 284.345 271.995C284.239 272.323 354.369 255.755 354.369 255.755L356 251L267 259.38Z" fill="url(#paint9_linear)"/>
<path id="Vector_26" d="M268 259.364L330.107 246L356 251.054L285.442 268L268 259.364Z" fill="#2BD0D0"/>
<path id="Vector_27" d="M268 259.364L330.107 246L356 251.054L285.442 268L268 259.364Z" fill="url(#paint10_linear)"/>
<path id="Vector_28" d="M247.832 270.484L262.289 270.996C262.289 270.996 265.961 271.224 266.909 268.279C267.859 265.334 261.019 259.119 260.287 259.002C259.554 258.884 240.527 264.222 243.27 269.558L247.832 270.484Z" fill="#2BD0D0"/>
<path id="Vector_29" d="M247.832 270.484L262.289 270.996C262.289 270.996 265.961 271.224 266.909 268.279C267.859 265.334 261.019 259.119 260.287 259.002C259.554 258.884 240.527 264.222 243.27 269.558L247.832 270.484Z" fill="url(#paint11_linear)"/>
<path id="Vector_30" d="M79 416.056L71.942 437.733C51.469 445.084 34.062 437.733 34.062 437.733L29 415C29 415 54.535 423.56 79 416.056Z" fill="#2BD0D0"/>
<path id="Vector_31" d="M79 416.056L71.942 437.733C51.469 445.084 34.062 437.733 34.062 437.733L29 415C29 415 54.535 423.56 79 416.056Z" fill="url(#paint12_linear)"/>
<path id="Vector_32" d="M87 396L84.716 412.943L78.93 415.951C54.282 423.371 28.515 414.913 28.515 414.913L24.072 411.63L22 396H87Z" fill="#2BD0D0"/>
<path id="Vector_33" d="M87 396L84.716 412.943L78.93 415.951C54.282 423.371 28.515 414.913 28.515 414.913L24.072 411.63L22 396H87Z" fill="url(#paint13_linear)"/>
<path id="Vector_34" d="M54.5 401C72.4493 401 87 398.314 87 395C87 391.686 72.4493 389 54.5 389C36.5507 389 22 391.686 22 395C22 398.314 36.5507 401 54.5 401Z" fill="#2BD0D0"/>
<path id="Vector_35" d="M54.5 401C72.4493 401 87 398.314 87 395C87 391.686 72.4493 389 54.5 389C36.5507 389 22 391.686 22 395C22 398.314 36.5507 401 54.5 401Z" fill="url(#paint14_linear)"/>
<path id="Vector_36" d="M39.641 265.03C36.459 263.515 33.038 262.372 30.285 260.16C24.738 255.66 23.332 247.912 21.595 240.962C19.859 234.011 16.498 226.369 9.65095 224.375C7.08895 223.638 4.08395 223.93 2.13595 225.765C0.0829523 227.698 -0.334048 230.875 0.227952 233.679C0.788952 236.483 2.15595 238.995 3.21295 241.653C5.68035 247.831 6.43086 254.561 5.38495 261.13C4.51995 266.519 2.45295 271.981 3.77995 277.264C6.03195 286.228 17.25 291.484 17.56 300.721C17.772 306.954 12.675 312.722 13.83 318.856C14.682 323.394 18.835 326.936 19.06 331.548C19.31 336.778 14.398 341.203 14.636 346.433C14.873 351.663 20.063 355.158 23.451 359.272C26.2932 362.733 27.9811 366.996 28.278 371.465C28.456 374.256 28.099 377.147 29.004 379.792C29.664 381.725 30.984 383.367 32.008 385.108C33.138 386.988 33.989 389.022 35.349 390.763C37.0509 392.929 39.3666 394.532 41.9935 395.362C44.6204 396.191 47.4365 396.21 50.074 395.414C51.124 388.464 50.206 381.374 50.497 374.349C51.071 360.74 56.188 347.025 52.913 333.814C51.712 328.97 49.401 324.371 48.991 319.401C48.628 314.961 49.803 310.563 50.622 306.184C52.312 297.14 52.286 287.79 51.592 278.646C51.045 271.39 45.974 268.047 39.642 265.03H39.641Z" fill="#2BD0D0"/>
<path id="Vector_37" d="M59.752 300.767C59.699 306.829 61.082 313.097 59.14 318.852C57.67 323.214 54.438 326.786 52.769 331.075C48.919 340.974 54.099 352.075 53.042 362.645C52.602 366.999 51.106 371.182 50.162 375.458C48.9892 380.871 48.7018 386.438 49.311 391.943C49.2491 392.946 49.5514 393.937 50.1623 394.735C50.7732 395.533 51.6516 396.083 52.636 396.285C55.8947 397.526 59.27 398.435 62.711 399C61.5477 392.591 62.7733 385.977 66.156 380.41C71.43 371.78 81.678 365.964 83.586 356.051C84.876 349.339 81.871 342.527 82.084 335.696C82.2375 331.149 83.8041 326.763 86.566 323.148C89.046 319.921 92.405 317.425 94.713 314.078C100.259 306.012 98.53 295.23 96.881 285.584C95.231 275.937 94.274 264.836 100.791 257.527C102.853 255.217 105.539 253.483 107.408 251.014C111.571 245.51 110.52 237.031 105.678 232.112C100.838 227.192 93.043 225.832 86.46 227.996C83.6837 228.812 81.2325 230.476 79.45 232.756C76.125 237.47 77.455 243.91 78.865 249.513C80.095 254.38 81.086 259.996 79.404 264.903C78.147 268.554 74.961 270.533 72.254 273.075C68.4189 276.616 65.3356 280.893 63.1878 285.65C61.04 290.407 59.8715 295.549 59.752 300.767V300.767Z" fill="#2BD0D0"/>
<path id="Vector_38" d="M53.062 354.522C52.124 361.115 50.77 367.761 50.492 374.373V375.038C50.4776 375.202 50.4403 375.363 50.381 375.517C49.2093 380.935 48.9169 386.507 49.515 392.018C49.551 392.911 49.776 393.786 50.175 394.584C50.143 394.863 50.103 395.135 50.064 395.414C47.4257 396.21 44.6087 396.191 41.981 395.362C39.3532 394.532 37.0367 392.929 35.334 390.762C34.014 389.021 33.121 386.987 31.992 385.107C30.935 383.359 29.647 381.717 28.987 379.79C28.082 377.131 28.438 374.254 28.26 371.463C27.9634 366.993 26.2752 362.729 23.432 359.267C20.043 355.18 14.845 351.751 14.614 346.434C14.383 341.117 19.29 336.778 19.039 331.547C18.815 326.935 14.66 323.393 13.809 318.854C12.652 312.719 17.771 306.951 17.54 300.717C17.23 291.479 6.00799 286.222 3.75499 277.257C2.43499 271.973 4.49499 266.51 5.35999 261.121C6.41111 254.559 5.66964 247.836 3.21399 241.661C2.15699 239.003 0.789993 236.498 0.227993 233.686C-0.333007 230.876 0.0829935 227.705 2.13699 225.764C4.11899 223.93 7.09099 223.638 9.65399 224.375C16.51 226.369 19.858 234.039 21.602 240.99C23.346 247.942 24.746 255.684 30.294 260.19C33.036 262.417 36.47 263.546 39.654 265.062C45.994 268.079 51.067 271.422 51.609 278.612C52.269 287.757 52.329 297.108 50.639 306.153C49.819 310.533 48.657 314.933 49.007 319.372C49.357 323.812 51.279 328.012 52.534 332.318C52.673 332.803 52.811 333.295 52.93 333.787C54.595 340.626 54.06 347.544 53.062 354.522V354.522Z" fill="#30C59B"/>
<path id="Vector_39" d="M49.718 394C49.4158 393.204 49.2462 392.363 49.216 391.512C48.786 386.152 49 380.732 49.853 375.465C49.876 375.31 49.905 375.155 49.933 375C49.762 381.346 50.307 387.744 49.718 394V394Z" fill="url(#paint15_linear)"/>
<path id="Vector_40" d="M107.393 251.014C105.522 253.484 102.831 255.216 100.766 257.527C94.239 264.83 95.198 275.937 96.85 285.584C98.501 295.23 100.233 306.012 94.678 314.079C92.368 317.399 89.004 319.921 86.519 323.148C83.753 326.762 82.1834 331.148 82.029 335.696C81.817 342.527 84.827 349.339 83.535 356.051C81.624 365.964 71.36 371.793 66.078 380.411C62.7032 385.981 61.4852 392.593 62.654 399C59.2166 398.436 55.8448 397.526 52.59 396.285C51.7005 396.022 50.8935 395.534 50.246 394.87C50.154 394.762 50.0714 394.647 49.999 394.525C49.5862 393.735 49.3479 392.865 49.3 391.975C48.701 386.469 49 380.902 50.186 375.491C50.219 375.331 50.259 375.172 50.299 375.013C51.245 370.903 52.644 366.873 53.07 362.677C53.2965 359.957 53.2429 357.22 52.91 354.511C53.916 347.54 54.455 340.629 52.757 333.843C52.637 333.353 52.497 332.861 52.357 332.376C52.484 331.951 52.63 331.526 52.797 331.108C54.469 326.819 57.706 323.248 59.177 318.885C61.116 313.129 59.737 306.862 59.79 300.8C59.877 290.33 64.613 280.22 72.219 273.075C74.929 270.533 78.12 268.555 79.379 264.903C81.064 259.996 80.045 254.38 78.839 249.513C77.421 243.91 76.075 237.47 79.426 232.756C81.091 230.419 83.716 228.899 86.446 227.996C93.013 225.831 100.853 227.192 105.695 232.112C110.537 237.032 111.563 245.542 107.393 251.014V251.014Z" fill="#30C59B"/>
<path id="Vector_41" d="M225.573 146.146C225.573 146.146 197.756 150.446 184.889 181.123C172.022 211.8 178.713 249.806 178.938 253.15C179.163 256.494 218.366 271 229.573 271C240.781 271 243.115 259.771 243.115 259.771L223.312 251.338L283.482 244.389H294.286L288.335 254.421C288.335 254.421 300.078 255.651 307.927 255.932C315.775 256.213 321.105 240.692 321.984 232.973C322.864 225.256 287.317 157.515 282.007 153.503C276.697 149.49 262.29 139.686 225.573 146.146V146.146Z" fill="#2BD0D0"/>
<path id="Vector_42" d="M258.392 88.776C258.392 88.776 263.424 91.606 262.972 100.761C262.519 109.916 259.682 123.693 256.819 127.261C253.955 130.831 243.939 132.229 243.939 132.229C243.939 132.229 249.403 145.206 253.469 148.555C257.535 151.904 249.383 164.242 241.454 160.194C233.526 156.145 224.334 145.978 224.334 145.978C224.334 145.978 230.946 133.733 228.71 127.288C226.475 120.843 217.938 98.224 224.334 92.046C230.73 85.866 244.52 77.011 258.392 88.776V88.776Z" fill="url(#paint16_linear)"/>
<path id="Vector_43" opacity="0.25" d="M214.334 190L210 244.055L223.238 251L234 249.122L220.572 232.618L214.334 190ZM284 187C284 187 301.909 229.077 293.97 244L287.854 242.84L284 187Z" fill="white"/>
<path id="leftHand" d="M235.522 258.045C235.522 258.045 228.756 263.82 231.776 268.312C234.796 272.803 238.401 272.675 241.407 270.667C244.413 268.658 250.318 263.891 257.353 266.079C264.388 268.267 266.097 269.659 266.097 269.659C266.097 269.659 269.802 267.343 268.841 265.02C267.879 262.697 260.521 255.17 258.389 254.195C256.257 253.22 247.406 256.216 247.406 256.216C247.406 256.216 240.903 254.458 235.522 258.046V258.045Z" fill="url(#paint17_linear)"/>
<path id="rightHand" d="M295.191 245.598C295.191 245.598 288.806 246.357 287.193 250.555C285.58 254.753 285 255.265 285 255.265C285 255.265 288.606 255.955 290.106 254.001C291.606 252.047 293.165 252.868 293.165 252.868L292.718 255.375C292.718 255.375 302.516 256.852 306.942 255.265C311.367 253.676 313.267 251.812 313.267 251.812L315 247.572C315 247.572 310.82 244.542 307.668 244.072C304.516 243.602 295.191 245.598 295.191 245.598V245.598Z" fill="url(#paint18_linear)"/>
<path id="leftLeg" d="M219 306.058C219 306.058 229.444 315.953 248.062 319.06C266.681 322.167 275.359 324.76 281.049 340.665C286.739 356.57 292.197 390.802 293.984 394.628C295.77 398.454 303.366 396.502 303.366 396.502C303.366 396.502 307.662 391.607 307.662 364.388C307.662 326.442 310.317 318.664 300.749 309.132C291.181 299.599 282.477 297 282.477 297L219 306.058Z" fill="#3F3D56"/>
<path id="leftFoot" d="M294 394L295.82 408.197H299.228C299.228 408.197 321.176 409.384 321.864 408.872C322.552 408.359 320.807 397.629 312.492 397.932C304.176 398.236 303.631 395.909 303.631 395.909L294 394Z" fill="#25233A"/>
<path id="rightFoot" d="M328.35 384.156L331.868 398L370.305 392.788C370.305 392.788 371.658 383.695 359.482 384.597C356.268 384.831 353.874 387.062 350.011 387.082C346.148 387.102 342.448 385.539 340.5 383L328.35 384.156Z" fill="#25233A"/>
<path id="Vector_44" d="M461.804 212.337L319.561 219.991C316.121 220.172 313.185 217.521 313 214.065V112.473C313.003 108.372 316.267 105.025 320.348 104.938L462.009 102.001C462.91 101.983 463.805 102.143 464.643 102.472C465.482 102.801 466.247 103.292 466.895 103.918C468.207 105.185 468.964 106.921 469 108.745V204.716C468.995 208.772 465.836 212.118 461.804 212.337V212.337Z" fill="#2BD0D0"/>
<path id="Vector_45" d="M469.804 212.337L327.554 219.992C324.114 220.169 321.182 217.514 321 214.058V112.473C320.996 108.371 324.26 105.021 328.342 104.938L470.022 102.001C473.799 101.931 476.92 104.944 477 108.739V204.716C476.995 208.773 473.836 212.119 469.804 212.337V212.337Z" fill="#2BD0D0"/>
<path id="Vector_46" d="M469.804 212.337L327.554 219.992C324.114 220.169 321.182 217.514 321 214.058V112.473C320.996 108.371 324.26 105.021 328.342 104.938L470.022 102.001C473.799 101.931 476.92 104.944 477 108.739V204.716C476.995 208.773 473.836 212.119 469.804 212.337V212.337Z" fill="url(#paint19_linear)"/>
<path id="Vector_47" d="M427.773 251.138L391.478 255C391.478 255 380.425 252.77 381.023 251.138C381.622 249.505 393.179 247.933 393.179 247.933V182.129C393.079 181.983 391.558 180.045 387.39 178.81C386.583 178.571 385.762 178.38 384.931 178.24C384.217 178.136 383.523 177.925 382.871 177.616C380.392 176.336 383.131 174.106 386.978 174.006C387.581 173.985 388.184 174.02 388.78 174.112H416.693C416.693 174.112 427.261 177.085 427.773 191.923C428.284 206.762 427.773 251.138 427.773 251.138V251.138Z" fill="#3A3054"/>
<path id="Vector_48" d="M398 251.277L391.322 255C391.322 255 380.434 252.77 381.023 251.137C381.613 249.505 393.018 247.932 393.018 247.932V182.123C392.88 181.971 391.211 180.225 387.315 178.805C385.865 178.288 384.377 177.888 382.863 177.61C380.421 176.33 383.118 174.1 386.909 174C390.137 174.445 396.494 178.028 396.907 180.073C397.319 182.117 398 251.277 398 251.277V251.277Z" fill="#51466B"/>
<path id="Vector_49" d="M263 389C262.119 390.001 261.71 390.37 262.23 389.547C262.5 389.388 262.757 389.205 263 389Z" fill="url(#paint20_linear)"/>
</g>
</g>
<defs>
<linearGradient id="paint0_linear" x1="203" y1="384.5" x2="214" y2="384.5" gradientUnits="userSpaceOnUse">
<stop stop-color="#183866"/>
<stop offset="1" stop-color="#1A7FC1"/>
</linearGradient>
<linearGradient id="paint1_linear" x1="229.992" y1="386.501" x2="236" y2="386.501" gradientUnits="userSpaceOnUse">
<stop/>
<stop offset="0.99" stop-opacity="0"/>
</linearGradient>
<linearGradient id="paint2_linear" x1="277.736" y1="303.741" x2="303.309" y2="315.701" gradientUnits="userSpaceOnUse">
<stop/>
<stop offset="0.99" stop-opacity="0"/>
</linearGradient>
<linearGradient id="paint3_linear" x1="228.536" y1="145.881" x2="225.024" y2="144.925" gradientUnits="userSpaceOnUse">
<stop/>
<stop offset="0.99" stop-opacity="0"/>
</linearGradient>
<linearGradient id="paint4_linear" x1="298.904" y1="366.244" x2="212.678" y2="338.077" gradientUnits="userSpaceOnUse">
<stop/>
<stop offset="0.99" stop-opacity="0"/>
</linearGradient>
<linearGradient id="paint5_linear" x1="309.221" y1="56.3018" x2="305.253" y2="55.049" gradientUnits="userSpaceOnUse">
<stop/>
<stop offset="0.99" stop-opacity="0"/>
</linearGradient>
<linearGradient id="paint6_linear" x1="266.175" y1="311.613" x2="238.43" y2="318.99" gradientUnits="userSpaceOnUse">
<stop/>
<stop offset="0.99" stop-opacity="0"/>
</linearGradient>
<linearGradient id="paint7_linear" x1="498.455" y1="304.803" x2="-9.96401" y2="280.329" gradientUnits="userSpaceOnUse">
<stop/>
<stop offset="1" stop-opacity="0"/>
</linearGradient>
<linearGradient id="paint8_linear" x1="212.122" y1="223.225" x2="474.12" y2="223.225" gradientUnits="userSpaceOnUse">
<stop stop-color="#183866"/>
<stop offset="1" stop-color="#1A7FC1"/>
</linearGradient>
<linearGradient id="paint9_linear" x1="302.943" y1="259.298" x2="306.102" y2="271.573" gradientUnits="userSpaceOnUse">
<stop/>
<stop offset="0.99" stop-opacity="0"/>
</linearGradient>
<linearGradient id="paint10_linear" x1="256.973" y1="255.883" x2="342.307" y2="283.188" gradientUnits="userSpaceOnUse">
<stop/>
<stop offset="0.99" stop-opacity="0"/>
</linearGradient>
<linearGradient id="paint11_linear" x1="255.888" y1="264.073" x2="255.259" y2="268.902" gradientUnits="userSpaceOnUse">
<stop/>
<stop offset="0.99" stop-opacity="0"/>
</linearGradient>
<linearGradient id="paint12_linear" x1="124.463" y1="328.356" x2="80.1252" y2="326.644" gradientUnits="userSpaceOnUse">
<stop/>
<stop offset="0.99" stop-opacity="0"/>
</linearGradient>
<linearGradient id="paint13_linear" x1="131.576" y1="366.963" x2="94.5324" y2="365.696" gradientUnits="userSpaceOnUse">
<stop/>
<stop offset="0.99" stop-opacity="0"/>
</linearGradient>
<linearGradient id="paint14_linear" x1="59.0428" y1="394.234" x2="57.6911" y2="400.916" gradientUnits="userSpaceOnUse">
<stop/>
<stop offset="0.99" stop-opacity="0"/>
</linearGradient>
<linearGradient id="paint15_linear" x1="49.581" y1="95.0215" x2="46.4729" y2="114.158" gradientUnits="userSpaceOnUse">
<stop/>
<stop offset="0.99" stop-opacity="0"/>
</linearGradient>
<linearGradient id="paint16_linear" x1="221.983" y1="121.995" x2="262.999" y2="121.995" gradientUnits="userSpaceOnUse">
<stop stop-color="#ECC4D7"/>
<stop offset="0.42" stop-color="#EFD4D1"/>
<stop offset="1" stop-color="#F2EAC9"/>
</linearGradient>
<linearGradient id="paint17_linear" x1="268.632" y1="224.608" x2="306.632" y2="224.608" gradientUnits="userSpaceOnUse">
<stop stop-color="#ECC4D7"/>
<stop offset="0.42" stop-color="#EFD4D1"/>
<stop offset="1" stop-color="#F2EAC9"/>
</linearGradient>
<linearGradient id="paint18_linear" x1="322.292" y1="233.853" x2="352.292" y2="233.853" gradientUnits="userSpaceOnUse">
<stop stop-color="#ECC4D7"/>
<stop offset="0.42" stop-color="#EFD4D1"/>
<stop offset="1" stop-color="#F2EAC9"/>
</linearGradient>
<linearGradient id="paint19_linear" x1="522.068" y1="220.425" x2="379.989" y2="314.915" gradientUnits="userSpaceOnUse">
<stop stop-color="#362958" stop-opacity="0.501"/>
<stop offset="1" stop-color="#34313D" stop-opacity="0"/>
</linearGradient>
<linearGradient id="paint20_linear" x1="301.89" y1="46.8935" x2="300.725" y2="46.4624" gradientUnits="userSpaceOnUse">
<stop/>
<stop offset="0.99" stop-opacity="0"/>
</linearGradient>
<clipPath id="clip0">
<rect width="733" height="482" fill="white"/>
</clipPath>
</defs>
</svg>
