<svg width="733" height="482" viewBox="0 0 733 482" fill="none" xmlns="http://www.w3.org/2000/svg">
<g id="illustration-working" clip-path="url(#clip0)">
<g id="Group">
<path id="Vector" d="M600.08 110.214C579.107 87.829 562.872 61.107 537.805 42.839C498.431 14.085 441.764 11.281 395.725 29.345C349.685 47.408 313.82 83.819 290.181 125.048C277.746 146.74 267.979 170.402 249.758 188.128C234.355 203.104 214.11 212.659 194.915 223.066C163.967 239.799 134.163 260.018 114.135 287.761C94.1089 315.504 85.1549 351.941 97.9569 383.207C106.59 404.304 123.979 421.09 141.793 436.288C162.757 454.157 185.289 470.889 211.293 481.536C243.848 494.782 279.987 497.63 315.427 498.978C378.255 501.358 441.184 499.579 503.746 493.655C554.976 488.811 607.757 480.542 650.62 453.775C710.663 416.291 741.62 347.612 748.59 280.265C751.426 253.329 750.708 225.337 739.626 200.345C713.122 140.565 641.609 154.547 600.079 110.214H600.08Z" fill="#EFF1F7"/>
<path id="rightLeg" d="M328.893 285C328.893 285 350.827 301.687 348.877 324.259C346.928 346.831 344.064 380.346 344.064 380.346C344.064 380.346 335.218 384.068 329.357 380.346C323.495 376.624 319.946 325.696 317.042 320.833C314.138 315.969 296.667 294.043 278 292.154L328.893 285Z" fill="#25233A"/>
<path id="Vector_2" d="M178.317 197.334C178.317 197.334 161.717 194.387 157.067 206.003C152.417 217.619 157.067 257.736 157.067 257.736L219 302L178.317 197.334Z" fill="#3F3D56"/>
<path id="Vector_3" d="M256.202 374.727L231.647 381.735C228.079 382.745 224.337 380.783 223.275 377.349C222.228 373.911 224.262 370.303 227.825 369.28L252.347 362.266C255.912 361.256 259.654 363.213 260.719 366.645C261.777 370.078 259.759 373.69 256.202 374.727Z" fill="#2BD0D0"/>
<path id="Vector_4" d="M255 401C261.075 401 266 396.075 266 390C266 383.925 261.075 379 255 379C248.925 379 244 383.925 244 390C244 396.075 248.925 401 255 401Z" fill="#25233A"/>
<path id="Vector_5" d="M253.5 398C256.538 398 259 395.538 259 392.5C259 389.462 256.538 387 253.5 387C250.463 387 248 389.462 248 392.5C248 395.538 250.463 398 253.5 398Z" fill="#3F3D56"/>
<path id="Vector_6" d="M210 390C216.075 390 221 385.075 221 379C221 372.925 216.075 368 210 368C203.925 368 199 372.925 199 379C199 385.075 203.925 390 210 390Z" fill="#25233A"/>
<path id="Vector_7" d="M214 379.5C214 380.959 213.421 382.358 212.389 383.389C211.358 384.421 209.959 385 208.5 385C207.042 385 205.643 384.421 204.611 383.389C203.58 382.358 203 380.959 203 379.5C203 378.041 203.58 376.642 204.611 375.611C205.643 374.579 207.042 374 208.5 374C209.959 374 211.358 374.579 212.389 375.611C213.421 376.642 214 378.041 214 379.5Z" fill="url(#paint0_linear)"/>
<path id="Vector_8" d="M207 405C213.075 405 218 400.075 218 394C218 387.925 213.075 383 207 383C200.925 383 196 387.925 196 394C196 400.075 200.925 405 207 405Z" fill="#25233A"/>
<path id="Vector_9" d="M216 394.5C216 395.959 215.421 397.358 214.389 398.389C213.358 399.421 211.959 400 210.5 400C209.042 400 207.643 399.421 206.611 398.389C205.58 397.358 205 395.959 205 394.5C205 393.041 205.58 391.642 206.611 390.611C207.643 389.579 209.042 389 210.5 389C211.959 389 213.358 389.579 214.389 390.611C215.421 391.642 216 393.041 216 394.5Z" fill="#3F3D56"/>
<path id="Vector_10" d="M257.085 385.874L206.298 375.828C202.724 375.111 200.414 371.698 201.13 368.192C201.862 364.692 205.34 362.428 208.915 363.126L259.702 373.153C263.276 373.87 265.586 377.283 264.87 380.79C264.147 384.297 260.666 386.571 257.085 385.874Z" fill="#2BD0D0"/>
<path id="Vector_11" d="M226 305H240V364C240 367.866 236.867 371 233.003 371C231.147 370.999 229.368 370.261 228.056 368.949C226.744 367.636 226.007 365.856 226.007 364V305H226Z" fill="#2BD0D0"/>
<path id="Vector_12" d="M231.187 381.708L206.65 388.733C203.082 389.747 199.336 387.784 198.275 384.345C197.228 380.905 199.262 377.295 202.823 376.271L227.36 369.266C230.924 368.256 234.664 370.214 235.728 373.647C236.767 377.082 234.738 380.681 231.187 381.707V381.708Z" fill="#2BD0D0"/>
<path id="Vector_13" d="M236 381.26L232.875 381.811C231.926 381.976 230.962 382.033 230 381.983L231.305 381.755C232.17 381.611 233.012 381.357 233.812 381L236 381.26Z" fill="url(#paint1_linear)"/>
<path id="Vector_14" d="M261 367.738C261.003 369.282 260.489 370.782 259.54 372L239 367.65C239.52 366.907 239.893 366.071 240.098 365.188L252.752 361.265C253.567 361.019 254.424 360.944 255.269 361.043C256.114 361.143 256.93 361.415 257.665 361.844C259.165 362.711 260.274 364.168 260.748 365.892C260.912 366.492 260.997 367.114 261 367.738Z" fill="url(#paint2_linear)"/>
<path id="Vector_15" opacity="0.31" d="M225.22 366.103C225.074 365.589 225 365.057 225 364.523V306H230.943V369.07C230.884 369.38 230.903 369.697 231 370C230.085 369.682 229.125 369.51 228.155 369.489C227.465 369.449 226.77 369.449 226.079 369.489L226.504 369.389C226.766 369.349 225.564 367.298 225.221 366.103H225.22Z" fill="url(#paint3_linear)"/>
<path id="Vector_16" opacity="0.31" d="M262.289 384.8C261.319 385.323 260.228 385.597 259.119 385.596C258.673 385.595 258.228 385.551 257.789 385.466L235.382 381.06L233.515 380.697C232.875 381.176 232.152 381.534 231.382 381.752L230.272 382.069L207.247 388.735C203.733 389.742 200.045 387.792 199 384.373C200.997 386.178 204.029 386.346 206.223 384.774C209.034 382.878 220.225 380.031 226.564 378.517C229.56 377.819 231.852 375.467 232.412 372.517C232.428 372.344 232.454 372.171 232.492 372C233.548 373.113 235.489 374.362 238.997 375.423C247.637 378.012 261.664 379.727 261.664 379.727C261.664 379.727 264.196 382.147 262.289 384.8Z" fill="url(#paint4_linear)"/>
<path id="Vector_17" d="M264 383C263.464 383.786 262.786 384.464 262 385C262.675 384.341 263.342 383.675 264 383Z" fill="url(#paint5_linear)"/>
<path id="Vector_18" d="M226.3 365.559C226.58 366.734 227.166 367.815 228 368.689C227.79 368.728 227.575 368.781 227.359 368.84L206.088 375C202.817 374.187 200.662 371.135 201.044 367.854C201.425 364.574 204.225 362.073 207.6 362C208.054 362.001 208.506 362.045 208.95 362.132L226.3 365.559Z" fill="url(#paint6_linear)"/>
<path id="hair" d="M259 84.407C259 84.407 258.724 63.602 241.925 65.397C225.125 67.19 226.414 60.302 219.238 61.058C212.063 61.815 203.728 68.844 206.121 77.526C208.516 86.208 199.789 88.149 194.057 94.736C188.324 101.323 195.406 106.712 205.063 113.152C214.72 119.592 204.463 117.925 210.188 128.107C215.914 138.288 235.295 125.282 235.295 125.282L259 84.407Z" fill="#503164"/>
<path id="Vector_19" d="M122.664 429.601L134.394 430V336.255C134.394 336.255 134.984 312.014 157.846 309.582C180.707 307.151 388.042 277.116 388.042 277.116C388.042 277.116 396.26 276.246 400.993 292.017C405.726 307.788 410.333 369.804 410.333 369.804L473.973 378.381C473.973 378.381 475.653 268.831 452.671 262.786C429.69 256.741 129.149 287.546 129.149 287.546C129.149 287.546 106.859 403.898 122.664 429.601Z" fill="#2BD0D0"/>
<path id="Vector_20" opacity="0.197" d="M122.664 429.601L134.394 430V336.255C134.394 336.255 134.984 312.014 157.846 309.582C180.707 307.151 388.042 277.116 388.042 277.116C388.042 277.116 396.26 276.246 400.993 292.017C405.726 307.788 410.333 369.804 410.333 369.804L473.973 378.381C473.973 378.381 475.653 268.831 452.671 262.786C429.69 256.741 129.149 287.546 129.149 287.546C129.149 287.546 106.859 403.898 122.664 429.601Z" fill="url(#paint7_linear)"/>
<path id="Vector_21" d="M62.0003 298.784C62.0003 298.784 67.7443 267.028 108.144 258.705L393.327 226.062C393.327 226.062 421.323 224.902 434.131 232.649C446.939 240.395 465.219 246.817 472.714 281.872C480.209 316.928 482 376.814 482 376.814L474.91 377.914C474.91 377.914 464.562 269.474 453.598 262.608C442.635 255.743 146.196 297.863 146.196 297.863C146.196 297.863 125.635 301.951 123.844 332.395C122.054 362.838 123.844 429 123.844 429L62.0003 404.057V298.784Z" fill="#2BD0D0"/>
<path id="Vector_22" opacity="0.19" d="M355.425 238.844C340.663 236.944 325.781 235.568 310.906 236.124C299.726 236.557 288.62 238.09 277.534 239.617L179.759 253.12C178.099 253.35 176.209 253.723 175.379 255.164C173.787 257.916 177.529 260.628 180.561 261.676C213.071 272.932 247.804 284.332 281.269 276.306C296.569 272.637 310.78 265.018 326.299 262.371C341.817 259.724 357.747 262.161 373.232 259.665C387.789 257.32 401.649 250.656 416.404 250.591C420.929 250.591 425.587 251.168 429.879 249.752C434.172 248.337 437.967 244.013 436.779 239.702C422.926 239.224 407.375 236.695 393.787 239.44C380.338 242.152 368.893 238.844 355.425 238.844Z" fill="url(#paint8_linear)"/>
<path id="Vector_23" d="M267 254.38L267.57 256.494C267.57 256.494 284.451 266.667 284.345 266.995C284.239 267.323 354.369 250.755 354.369 250.755L356 246L267 254.38Z" fill="#2BD0D0"/>
<path id="Vector_24" d="M267 254.38L267.57 256.494C267.57 256.494 284.451 266.667 284.345 266.995C284.239 267.323 354.369 250.755 354.369 250.755L356 246L267 254.38Z" fill="url(#paint9_linear)"/>
<path id="Vector_25" d="M268 254.364L330.107 241L356 246.054L285.442 263L268 254.364Z" fill="#2BD0D0"/>
<path id="Vector_26" d="M268 254.364L330.107 241L356 246.054L285.442 263L268 254.364Z" fill="url(#paint10_linear)"/>
<path id="Vector_27" d="M247.832 265.484L262.289 265.996C262.289 265.996 265.961 266.224 266.909 263.279C267.859 260.334 261.019 254.119 260.287 254.002C259.554 253.884 240.527 259.222 243.27 264.558L247.832 265.484Z" fill="#2BD0D0"/>
<path id="Vector_28" d="M247.832 265.484L262.289 265.996C262.289 265.996 265.961 266.224 266.909 263.279C267.859 260.334 261.019 254.119 260.287 254.002C259.554 253.884 240.527 259.222 243.27 264.558L247.832 265.484Z" fill="url(#paint11_linear)"/>
<path id="Vector_29" d="M79.0003 411.056L71.9423 432.733C51.4693 440.084 34.0623 432.733 34.0623 432.733L29.0003 410C29.0003 410 54.5353 418.56 79.0003 411.056Z" fill="#2BD0D0"/>
<path id="Vector_30" d="M79.0003 411.056L71.9423 432.733C51.4693 440.084 34.0623 432.733 34.0623 432.733L29.0003 410C29.0003 410 54.5353 418.56 79.0003 411.056Z" fill="url(#paint12_linear)"/>
<path id="Vector_31" d="M87.0003 391L84.7163 407.943L78.9303 410.951C54.2823 418.371 28.5153 409.913 28.5153 409.913L24.0723 406.63L22.0003 391H87.0003Z" fill="#2BD0D0"/>
<path id="Vector_32" d="M87.0003 391L84.7163 407.943L78.9303 410.951C54.2823 418.371 28.5153 409.913 28.5153 409.913L24.0723 406.63L22.0003 391H87.0003Z" fill="url(#paint13_linear)"/>
<path id="Vector_33" d="M54.5003 396C72.4496 396 87.0003 393.314 87.0003 390C87.0003 386.686 72.4496 384 54.5003 384C36.5511 384 22.0003 386.686 22.0003 390C22.0003 393.314 36.5511 396 54.5003 396Z" fill="#2BD0D0"/>
<path id="Vector_34" d="M54.5003 396C72.4496 396 87.0003 393.314 87.0003 390C87.0003 386.686 72.4496 384 54.5003 384C36.5511 384 22.0003 386.686 22.0003 390C22.0003 393.314 36.5511 396 54.5003 396Z" fill="url(#paint14_linear)"/>
<path id="leftLeaf" d="M53.0623 349.522C52.1243 356.115 50.7703 362.761 50.4923 369.373V370.038C50.478 370.202 50.4406 370.363 50.3813 370.517C49.2096 375.935 48.9172 381.507 49.5153 387.018C49.5513 387.911 49.7763 388.786 50.1753 389.584C50.1433 389.863 50.1033 390.135 50.0643 390.414C47.426 391.21 44.6091 391.191 41.9813 390.362C39.3535 389.532 37.037 387.929 35.3343 385.762C34.0143 384.021 33.1213 381.987 31.9923 380.107C30.9353 378.359 29.6473 376.717 28.9873 374.79C28.0823 372.131 28.4383 369.254 28.2603 366.463C27.9638 361.993 26.2755 357.729 23.4323 354.267C20.0433 350.18 14.8453 346.751 14.6143 341.434C14.3833 336.117 19.2903 331.778 19.0393 326.547C18.8153 321.935 14.6603 318.393 13.8093 313.854C12.6523 307.719 17.7713 301.951 17.5403 295.717C17.2303 286.479 6.00833 281.222 3.75533 272.257C2.43533 266.973 4.49533 261.51 5.36033 256.121C6.41145 249.559 5.66998 242.836 3.21433 236.661C2.15733 234.003 0.790329 231.498 0.228329 228.686C-0.332671 225.876 0.0833292 222.705 2.13733 220.764C4.11933 218.93 7.09133 218.638 9.65433 219.375C16.5103 221.369 19.8583 229.039 21.6023 235.99C23.3463 242.942 24.7463 250.684 30.2943 255.19C33.0363 257.417 36.4703 258.546 39.6543 260.062C45.9943 263.079 51.0673 266.422 51.6093 273.612C52.2693 282.757 52.3293 292.108 50.6393 301.153C49.8193 305.533 48.6573 309.933 49.0073 314.372C49.3573 318.812 51.2793 323.012 52.5343 327.318C52.6733 327.803 52.8113 328.295 52.9303 328.787C54.5953 335.626 54.0603 342.544 53.0623 349.522V349.522Z" fill="#30C59B"/>
<path id="rightLeaf" d="M107.393 246.014C105.522 248.484 102.831 250.216 100.766 252.527C94.2393 259.83 95.1983 270.937 96.8503 280.584C98.5013 290.23 100.233 301.012 94.6783 309.079C92.3683 312.399 89.0043 314.921 86.5193 318.148C83.7534 321.762 82.1838 326.148 82.0293 330.696C81.8173 337.527 84.8273 344.339 83.5353 351.051C81.6243 360.964 71.3603 366.793 66.0783 375.411C62.7036 380.981 61.4855 387.593 62.6543 394C59.2169 393.436 55.8452 392.526 52.5903 391.285C51.7009 391.021 50.8938 390.534 50.2463 389.87C50.1544 389.762 50.0717 389.647 49.9993 389.525C49.5866 388.735 49.3482 387.865 49.3003 386.975C48.7013 381.469 49.0003 375.902 50.1863 370.491C50.2193 370.331 50.2593 370.172 50.2993 370.013C51.2453 365.903 52.6443 361.873 53.0703 357.677C53.2969 354.957 53.2433 352.22 52.9103 349.511C53.9163 342.54 54.4553 335.629 52.7573 328.843C52.6373 328.353 52.4973 327.861 52.3573 327.376C52.4843 326.951 52.6303 326.526 52.7973 326.108C54.4693 321.819 57.7063 318.248 59.1773 313.885C61.1163 308.129 59.7373 301.862 59.7903 295.8C59.8773 285.33 64.6133 275.22 72.2193 268.075C74.9293 265.533 78.1203 263.555 79.3793 259.903C81.0643 254.996 80.0453 249.38 78.8393 244.513C77.4213 238.91 76.0753 232.47 79.4263 227.756C81.0913 225.419 83.7163 223.899 86.4463 222.996C93.0133 220.831 100.853 222.192 105.695 227.112C110.537 232.032 111.563 240.542 107.393 246.014Z" fill="#30C59B"/>
<path id="Vector_35" d="M225.573 141.146C225.573 141.146 197.756 145.446 184.889 176.123C172.022 206.8 178.713 244.806 178.938 248.15C179.163 251.494 218.366 266 229.573 266C240.781 266 243.115 254.771 243.115 254.771L223.312 246.338L283.482 239.389H294.286L288.335 249.421C288.335 249.421 300.078 250.651 307.927 250.932C315.775 251.213 321.105 235.692 321.984 227.973C322.864 220.256 287.317 152.515 282.007 148.503C276.697 144.49 262.29 134.686 225.573 141.146Z" fill="#2BD0D0"/>
<path id="head" d="M258.392 83.776C258.392 83.776 263.424 86.606 262.972 95.761C262.519 104.916 259.682 118.693 256.819 122.261C253.955 125.831 243.939 127.229 243.939 127.229C243.939 127.229 249.403 140.206 253.469 143.555C257.535 146.904 249.383 159.242 241.454 155.194C233.526 151.145 224.334 140.978 224.334 140.978C224.334 140.978 230.946 128.733 228.71 122.288C226.475 115.843 217.938 93.224 224.334 87.046C230.73 80.866 244.52 72.011 258.392 83.776Z" fill="url(#paint15_linear)"/>
<path id="Vector_36" opacity="0.25" d="M214.334 185L210 239.055L223.238 246L234 244.122L220.572 227.618L214.334 185ZM284 182C284 182 301.909 224.077 293.97 239L287.854 237.84L284 182Z" fill="white"/>
<path id="Vector_37" d="M235.522 253.045C235.522 253.045 228.756 258.82 231.776 263.312C234.796 267.803 238.401 267.675 241.407 265.667C244.413 263.658 250.318 258.891 257.353 261.079C264.388 263.267 266.097 264.659 266.097 264.659C266.097 264.659 269.802 262.343 268.841 260.02C267.879 257.697 260.521 250.17 258.389 249.195C256.257 248.22 247.406 251.216 247.406 251.216C247.406 251.216 240.903 249.457 235.522 253.045Z" fill="url(#paint16_linear)"/>
<path id="Vector_38" d="M295.191 240.598C295.191 240.598 288.806 241.357 287.193 245.555C285.58 249.753 285 250.265 285 250.265C285 250.265 288.606 250.955 290.106 249.001C291.606 247.047 293.165 247.868 293.165 247.868L292.718 250.375C292.718 250.375 302.516 251.852 306.942 250.265C311.367 248.676 313.267 246.812 313.267 246.812L315 242.572C315 242.572 310.82 239.542 307.668 239.072C304.516 238.602 295.191 240.598 295.191 240.598Z" fill="url(#paint17_linear)"/>
<path id="Vector_39" d="M219 301.058C219 301.058 229.444 310.953 248.062 314.06C266.681 317.167 275.359 319.76 281.049 335.665C286.739 351.57 292.197 385.802 293.984 389.628C295.77 393.454 303.366 391.502 303.366 391.502C303.366 391.502 307.662 386.607 307.662 359.388C307.662 321.442 310.317 313.664 300.749 304.132C291.181 294.599 282.477 292 282.477 292L219 301.058Z" fill="#3F3D56"/>
<g id="Vector_40" filter="url(#filter0_d)">
<path d="M295 390L296.82 404.197H300.228C300.228 404.197 322.176 405.384 322.864 404.872C323.552 404.359 321.807 393.629 313.492 393.932C305.176 394.236 304.631 391.909 304.631 391.909L295 390Z" fill="#25233A"/>
<path d="M300.228 404.197L300.255 403.698L300.242 403.697H300.228H297.26L295.585 390.626L304.29 392.351C304.334 392.424 304.392 392.505 304.465 392.591C304.7 392.868 305.09 393.191 305.733 393.488C307.011 394.079 309.316 394.585 313.511 394.432C317.399 394.29 319.768 396.71 321.11 399.324C321.78 400.631 322.179 401.963 322.368 402.994C322.462 403.51 322.502 403.938 322.5 404.239C322.5 404.323 322.496 404.392 322.491 404.447C322.477 404.448 322.463 404.45 322.448 404.451C322.267 404.469 322.01 404.482 321.682 404.49C321.027 404.506 320.121 404.502 319.046 404.483C316.898 404.443 314.095 404.343 311.309 404.227C308.525 404.111 305.761 403.978 303.693 403.875C302.66 403.823 301.8 403.779 301.199 403.748C300.898 403.732 300.662 403.719 300.502 403.711L300.318 403.701L300.271 403.699L300.259 403.698L300.256 403.698L300.256 403.698C300.255 403.698 300.255 403.698 300.228 404.197ZM322.656 404.421C322.661 404.419 322.665 404.419 322.665 404.419C322.665 404.419 322.662 404.42 322.656 404.421Z" stroke="black"/>
</g>
<g id="rightFoot" filter="url(#filter1_d)">
<path d="M331 381.156L334.518 395L372.955 389.788C372.955 389.788 374.308 380.695 362.132 381.597C358.918 381.831 356.524 384.062 352.661 384.082C348.798 384.102 345.098 382.539 343.15 380L331 381.156Z" fill="#25233A"/>
<path d="M334.893 394.445L331.628 381.598L342.927 380.523C345.031 383.083 348.794 384.602 352.664 384.582C354.694 384.571 356.332 383.977 357.825 383.384C357.961 383.33 358.095 383.276 358.228 383.223C359.575 382.684 360.792 382.196 362.168 382.096L362.169 382.096C365.154 381.874 367.263 382.27 368.752 382.951C370.233 383.629 371.128 384.603 371.671 385.594C372.219 386.594 372.418 387.627 372.478 388.419C372.506 388.799 372.503 389.119 372.491 389.346L334.893 394.445Z" stroke="black"/>
</g>
<path id="Vector_41" d="M461.804 207.337L319.561 214.991C316.121 215.172 313.185 212.521 313 209.065V107.473C313.003 103.372 316.267 100.025 320.348 99.938L462.009 97.001C462.91 96.9828 463.805 97.1428 464.644 97.4718C465.482 97.8008 466.247 98.2922 466.895 98.918C468.208 100.185 468.965 101.921 469 103.745V199.716C468.995 203.772 465.836 207.118 461.804 207.337Z" fill="#2BD0D0"/>
<path id="Vector_42" d="M469.804 207.337L327.554 214.992C324.114 215.169 321.182 212.514 321 209.058V107.473C320.996 103.371 324.26 100.021 328.342 99.938L470.022 97.001C473.799 96.931 476.92 99.944 477 103.739V199.716C476.995 203.773 473.836 207.119 469.804 207.337Z" fill="#2BD0D0"/>
<path id="Vector_43" d="M469.804 207.337L327.554 214.992C324.114 215.169 321.182 212.514 321 209.058V107.473C320.996 103.371 324.26 100.021 328.342 99.938L470.022 97.001C473.799 96.931 476.92 99.944 477 103.739V199.716C476.995 203.773 473.836 207.119 469.804 207.337Z" fill="url(#paint18_linear)"/>
<path id="Vector_44" d="M427.773 246.138L391.478 250C391.478 250 380.425 247.77 381.023 246.138C381.622 244.505 393.179 242.933 393.179 242.933V177.129C393.079 176.983 391.558 175.045 387.39 173.81C386.583 173.571 385.762 173.38 384.931 173.24C384.217 173.136 383.523 172.925 382.871 172.616C380.392 171.336 383.131 169.106 386.978 169.006C387.581 168.985 388.184 169.02 388.78 169.112H416.693C416.693 169.112 427.261 172.085 427.773 186.923C428.284 201.762 427.773 246.138 427.773 246.138Z" fill="#3A3054"/>
<path id="Vector_45" d="M398 246.277L391.322 250C391.322 250 380.434 247.77 381.023 246.137C381.613 244.505 393.018 242.932 393.018 242.932V177.123C392.88 176.971 391.211 175.225 387.315 173.805C385.866 173.288 384.377 172.888 382.863 172.61C380.421 171.33 383.118 169.1 386.909 169C390.137 169.445 396.494 173.028 396.907 175.073C397.319 177.117 398 246.277 398 246.277Z" fill="#51466B"/>
<path id="Vector_46" d="M263 384C262.119 385.001 261.71 385.37 262.23 384.547C262.5 384.388 262.757 384.205 263 384Z" fill="url(#paint19_linear)"/>
</g>
</g>
<defs>
<filter id="filter0_d" x="291" y="390" width="35.9999" height="23.0002" filterUnits="userSpaceOnUse" color-interpolation-filters="sRGB">
<feFlood flood-opacity="0" result="BackgroundImageFix"/>
<feColorMatrix in="SourceAlpha" type="matrix" values="0 0 0 0 0 0 0 0 0 0 0 0 0 0 0 0 0 0 127 0"/>
<feOffset dy="4"/>
<feGaussianBlur stdDeviation="2"/>
<feColorMatrix type="matrix" values="0 0 0 0 0 0 0 0 0 0 0 0 0 0 0 0 0 0 0.25 0"/>
<feBlend mode="normal" in2="BackgroundImageFix" result="effect1_dropShadow"/>
<feBlend mode="normal" in="SourceGraphic" in2="effect1_dropShadow" result="shape"/>
</filter>
<filter id="filter1_d" x="327" y="380" width="49.9997" height="23" filterUnits="userSpaceOnUse" color-interpolation-filters="sRGB">
<feFlood flood-opacity="0" result="BackgroundImageFix"/>
<feColorMatrix in="SourceAlpha" type="matrix" values="0 0 0 0 0 0 0 0 0 0 0 0 0 0 0 0 0 0 127 0"/>
<feOffset dy="4"/>
<feGaussianBlur stdDeviation="2"/>
<feColorMatrix type="matrix" values="0 0 0 0 0 0 0 0 0 0 0 0 0 0 0 0 0 0 0.25 0"/>
<feBlend mode="normal" in2="BackgroundImageFix" result="effect1_dropShadow"/>
<feBlend mode="normal" in="SourceGraphic" in2="effect1_dropShadow" result="shape"/>
</filter>
<linearGradient id="paint0_linear" x1="203" y1="379.5" x2="214" y2="379.5" gradientUnits="userSpaceOnUse">
<stop stop-color="#183866"/>
<stop offset="1" stop-color="#1A7FC1"/>
</linearGradient>
<linearGradient id="paint1_linear" x1="229.993" y1="381.501" x2="236" y2="381.501" gradientUnits="userSpaceOnUse">
<stop/>
<stop offset="0.99" stop-opacity="0"/>
</linearGradient>
<linearGradient id="paint2_linear" x1="277.736" y1="298.741" x2="303.309" y2="310.701" gradientUnits="userSpaceOnUse">
<stop/>
<stop offset="0.99" stop-opacity="0"/>
</linearGradient>
<linearGradient id="paint3_linear" x1="228.536" y1="140.881" x2="225.025" y2="139.925" gradientUnits="userSpaceOnUse">
<stop/>
<stop offset="0.99" stop-opacity="0"/>
</linearGradient>
<linearGradient id="paint4_linear" x1="298.904" y1="361.244" x2="212.678" y2="333.077" gradientUnits="userSpaceOnUse">
<stop/>
<stop offset="0.99" stop-opacity="0"/>
</linearGradient>
<linearGradient id="paint5_linear" x1="309.221" y1="51.3019" x2="305.253" y2="50.049" gradientUnits="userSpaceOnUse">
<stop/>
<stop offset="0.99" stop-opacity="0"/>
</linearGradient>
<linearGradient id="paint6_linear" x1="266.176" y1="306.613" x2="238.431" y2="313.99" gradientUnits="userSpaceOnUse">
<stop/>
<stop offset="0.99" stop-opacity="0"/>
</linearGradient>
<linearGradient id="paint7_linear" x1="498.455" y1="299.803" x2="-9.96363" y2="275.329" gradientUnits="userSpaceOnUse">
<stop/>
<stop offset="1" stop-opacity="0"/>
</linearGradient>
<linearGradient id="paint8_linear" x1="212.123" y1="218.225" x2="474.12" y2="218.225" gradientUnits="userSpaceOnUse">
<stop stop-color="#183866"/>
<stop offset="1" stop-color="#1A7FC1"/>
</linearGradient>
<linearGradient id="paint9_linear" x1="302.944" y1="254.298" x2="306.103" y2="266.573" gradientUnits="userSpaceOnUse">
<stop/>
<stop offset="0.99" stop-opacity="0"/>
</linearGradient>
<linearGradient id="paint10_linear" x1="256.973" y1="250.883" x2="342.308" y2="278.188" gradientUnits="userSpaceOnUse">
<stop/>
<stop offset="0.99" stop-opacity="0"/>
</linearGradient>
<linearGradient id="paint11_linear" x1="255.888" y1="259.073" x2="255.26" y2="263.902" gradientUnits="userSpaceOnUse">
<stop/>
<stop offset="0.99" stop-opacity="0"/>
</linearGradient>
<linearGradient id="paint12_linear" x1="124.463" y1="323.356" x2="80.1255" y2="321.644" gradientUnits="userSpaceOnUse">
<stop/>
<stop offset="0.99" stop-opacity="0"/>
</linearGradient>
<linearGradient id="paint13_linear" x1="131.576" y1="361.963" x2="94.5327" y2="360.696" gradientUnits="userSpaceOnUse">
<stop/>
<stop offset="0.99" stop-opacity="0"/>
</linearGradient>
<linearGradient id="paint14_linear" x1="59.0432" y1="389.234" x2="57.6915" y2="395.916" gradientUnits="userSpaceOnUse">
<stop/>
<stop offset="0.99" stop-opacity="0"/>
</linearGradient>
<linearGradient id="paint15_linear" x1="221.984" y1="116.995" x2="262.999" y2="116.995" gradientUnits="userSpaceOnUse">
<stop stop-color="#ECC4D7"/>
<stop offset="0.42" stop-color="#EFD4D1"/>
<stop offset="1" stop-color="#F2EAC9"/>
</linearGradient>
<linearGradient id="paint16_linear" x1="268.633" y1="219.608" x2="306.632" y2="219.608" gradientUnits="userSpaceOnUse">
<stop stop-color="#ECC4D7"/>
<stop offset="0.42" stop-color="#EFD4D1"/>
<stop offset="1" stop-color="#F2EAC9"/>
</linearGradient>
<linearGradient id="paint17_linear" x1="322.292" y1="228.853" x2="352.292" y2="228.853" gradientUnits="userSpaceOnUse">
<stop stop-color="#ECC4D7"/>
<stop offset="0.42" stop-color="#EFD4D1"/>
<stop offset="1" stop-color="#F2EAC9"/>
</linearGradient>
<linearGradient id="paint18_linear" x1="522.069" y1="215.425" x2="379.99" y2="309.915" gradientUnits="userSpaceOnUse">
<stop stop-color="#362958" stop-opacity="0.501"/>
<stop offset="1" stop-color="#34313D" stop-opacity="0"/>
</linearGradient>
<linearGradient id="paint19_linear" x1="301.891" y1="41.8935" x2="300.726" y2="41.4625" gradientUnits="userSpaceOnUse">
<stop/>
<stop offset="0.99" stop-opacity="0"/>
</linearGradient>
<clipPath id="clip0">
<rect width="733" height="482" fill="white"/>
</clipPath>
</defs>
</svg>
